<?xml version="1.0" standalone="no"?><!DOCTYPE svg PUBLIC "-//W3C//DTD SVG 1.1//EN" "http://www.w3.org/Graphics/SVG/1.1/DTD/svg11.dtd"><svg t="1675997817483" class="icon" viewBox="0 0 1024 1024" version="1.1" xmlns="http://www.w3.org/2000/svg" p-id="6282" width="32" height="32" xmlns:xlink="http://www.w3.org/1999/xlink"><path d="M0 0h1024v1024H0z" fill="#A0A0A0" p-id="6283"></path><path d="M411.7 329.1c25.5-112.4 126-196.5 246.2-196.5h1.6c14.8 0.1 18-20.8 3.8-24.8-40.7-11.5-84-16.8-128.8-14.9-163.9 7-303.9 112.5-362 258.2 60-34 154.7-69.4 239.2-22z" fill="" p-id="6284"></path><path d="M787.1 602.1c-24.9-19.1-56-30.4-89.8-30.4-29.7 0-57.4 8.8-80.6 23.9-28.7 18.7-65.4 21.1-94.2 2.7-70.4-44.8-117.1-123.5-117.1-213.1 0-19.3 2.2-38 6.3-56-84.5-47.4-179.2-12-239.2 22-16.7 41.9-26.7 87-28.5 134.2-8.8 232.9 177.4 424.5 408.3 424.5 73.6 0 142.6-19.5 202.3-53.5 0.2 0 0.3 0 0.4-0.1 14.5-8.3 28.4-17.5 41.7-27.5 3.3-2.5 6.4-5.2 9.2-8.2 24.5-26.5 39.5-61.9 39.5-100.8 0-48.2-22.9-90.8-58.3-117.7z" fill="#FFFFFF" p-id="6285"></path><path d="M391.3 466.4c0 53.8-43.6 85.1-97.4 85.1S180.6 529.8 180.6 476 239.2 358.4 293 358.4s98.3 54.2 98.3 108z" fill="#E6E6E6" p-id="6286"></path><path d="M304.6 443.8m-64.3 0a64.3 64.3 0 1 0 128.6 0 64.3 64.3 0 1 0-128.6 0Z" fill="#4D4D4D" p-id="6287"></path><path d="M313.8 454.9m-36.7 0a36.7 36.7 0 1 0 73.4 0 36.7 36.7 0 1 0-73.4 0Z" fill="" p-id="6288"></path></svg>